<?xml version="1.0" encoding="UTF-8" standalone="no"?><svg xmlns="http://www.w3.org/2000/svg" xmlns:xlink="http://www.w3.org/1999/xlink" contentStyleType="text/css" height="809px" preserveAspectRatio="none" style="width:302px;height:809px;background:#FFFFFF;" version="1.1" viewBox="0 0 302 809" width="302px" zoomAndPan="magnify"><defs/><g><!--MD5=[e5da348f9a286ac789819f64e84f1dc7]
class Entreprise--><g id="elem_Entreprise"><rect codeLine="6" fill="#F1F1F1" height="145.7813" id="Entreprise" rx="2.5" ry="2.5" style="stroke:#181818;stroke-width:0.5;" width="152" x="24" y="7"/><ellipse cx="58.8" cy="23" fill="#ADD1B2" rx="11" ry="11" style="stroke:#181818;stroke-width:1.0;"/><path d="M61.1438,18.6719 C60.2063,18.2344 59.6125,18.0938 58.7375,18.0938 C56.1125,18.0938 54.1125,20.1719 54.1125,22.8906 L54.1125,24.0156 C54.1125,26.5938 56.2219,28.4844 59.1125,28.4844 C60.3313,28.4844 61.4875,28.1875 62.2375,27.6406 C62.8156,27.2344 63.1438,26.7813 63.1438,26.3906 C63.1438,25.9375 62.7531,25.5469 62.2844,25.5469 C62.0656,25.5469 61.8625,25.625 61.675,25.8125 C61.2219,26.2969 61.2219,26.2969 61.0344,26.3906 C60.6125,26.6563 59.925,26.7813 59.1594,26.7813 C57.1125,26.7813 55.8156,25.6875 55.8156,23.9844 L55.8156,22.8906 C55.8156,21.1094 57.0656,19.7969 58.8,19.7969 C59.3781,19.7969 59.9875,19.9531 60.4563,20.2031 C60.9406,20.4844 61.1125,20.7031 61.2063,21.1094 C61.2688,21.5156 61.3,21.6406 61.4406,21.7656 C61.5813,21.9063 61.8156,22.0156 62.0344,22.0156 C62.3,22.0156 62.5656,21.875 62.7375,21.6563 C62.8469,21.5 62.8781,21.3125 62.8781,20.8906 L62.8781,19.4688 C62.8781,19.0313 62.8625,18.9063 62.7688,18.75 C62.6125,18.4844 62.3313,18.3438 62.0344,18.3438 C61.7375,18.3438 61.5344,18.4375 61.3156,18.75 L61.1438,18.6719 Z " fill="#000000"/><text fill="#000000" font-family="sans-serif" font-size="14" lengthAdjust="spacing" textLength="76" x="77.2" y="27.8467">Entreprise</text><line style="stroke:#181818;stroke-width:0.5;" x1="25" x2="175" y1="39" y2="39"/><text fill="#000000" font-family="sans-serif" font-size="14" lengthAdjust="spacing" textLength="80" x="30" y="55.9951">String nom</text><text fill="#000000" font-family="sans-serif" font-size="14" lengthAdjust="spacing" textLength="103" x="30" y="72.292">String adresse</text><line style="stroke:#181818;stroke-width:0.5;" x1="25" x2="175" y1="79.5938" y2="79.5938"/><text fill="#000000" font-family="sans-serif" font-size="14" lengthAdjust="spacing" textLength="116" x="30" y="96.5889">String getNom()</text><text fill="#000000" font-family="sans-serif" font-size="14" lengthAdjust="spacing" textLength="140" x="30" y="112.8857">String getAdresse()</text><text fill="#000000" font-family="sans-serif" font-size="14" lengthAdjust="spacing" textLength="114" x="30" y="129.1826">String setNom()</text><text fill="#000000" font-family="sans-serif" font-size="14" lengthAdjust="spacing" textLength="138" x="30" y="145.4795">String setAdresse()</text></g><!--MD5=[9a2897d96cfcc917fe91044b2ccff0ad]
class Employe--><g id="elem_Employe"><rect codeLine="17" fill="#F1F1F1" height="145.7813" id="Employe" rx="2.5" ry="2.5" style="stroke:#181818;stroke-width:0.5;" width="148" x="7" y="657"/><ellipse cx="45.85" cy="673" fill="#ADD1B2" rx="11" ry="11" style="stroke:#181818;stroke-width:1.0;"/><path d="M48.1938,668.6719 C47.2563,668.2344 46.6625,668.0938 45.7875,668.0938 C43.1625,668.0938 41.1625,670.1719 41.1625,672.8906 L41.1625,674.0156 C41.1625,676.5938 43.2719,678.4844 46.1625,678.4844 C47.3813,678.4844 48.5375,678.1875 49.2875,677.6406 C49.8656,677.2344 50.1938,676.7813 50.1938,676.3906 C50.1938,675.9375 49.8031,675.5469 49.3344,675.5469 C49.1156,675.5469 48.9125,675.625 48.725,675.8125 C48.2719,676.2969 48.2719,676.2969 48.0844,676.3906 C47.6625,676.6563 46.975,676.7813 46.2094,676.7813 C44.1625,676.7813 42.8656,675.6875 42.8656,673.9844 L42.8656,672.8906 C42.8656,671.1094 44.1156,669.7969 45.85,669.7969 C46.4281,669.7969 47.0375,669.9531 47.5063,670.2031 C47.9906,670.4844 48.1625,670.7031 48.2563,671.1094 C48.3188,671.5156 48.35,671.6406 48.4906,671.7656 C48.6313,671.9063 48.8656,672.0156 49.0844,672.0156 C49.35,672.0156 49.6156,671.875 49.7875,671.6563 C49.8969,671.5 49.9281,671.3125 49.9281,670.8906 L49.9281,669.4688 C49.9281,669.0313 49.9125,668.9063 49.8188,668.75 C49.6625,668.4844 49.3813,668.3438 49.0844,668.3438 C48.7875,668.3438 48.5844,668.4375 48.3656,668.75 L48.1938,668.6719 Z " fill="#000000"/><text fill="#000000" font-family="sans-serif" font-size="14" lengthAdjust="spacing" textLength="63" x="65.15" y="677.8467">Employe</text><line style="stroke:#181818;stroke-width:0.5;" x1="8" x2="154" y1="689" y2="689"/><text fill="#000000" font-family="sans-serif" font-size="14" lengthAdjust="spacing" textLength="124" x="13" y="705.9951">double salaireHor</text><text fill="#000000" font-family="sans-serif" font-size="14" lengthAdjust="spacing" textLength="89" x="13" y="722.292">String coord</text><line style="stroke:#181818;stroke-width:0.5;" x1="8" x2="154" y1="729.5938" y2="729.5938"/><text fill="#000000" font-family="sans-serif" font-size="14" lengthAdjust="spacing" textLength="136" x="13" y="746.5889">double getSalaire()</text><text fill="#000000" font-family="sans-serif" font-size="14" lengthAdjust="spacing" textLength="126" x="13" y="762.8857">String getCoord()</text><text fill="#000000" font-family="sans-serif" font-size="14" lengthAdjust="spacing" textLength="134" x="13" y="779.1826">double setSalaire()</text><text fill="#000000" font-family="sans-serif" font-size="14" lengthAdjust="spacing" textLength="124" x="13" y="795.4795">String setCoord()</text></g><!--MD5=[7231450f633845da6e92cf0373678125]
class Chantier--><g id="elem_Chantier"><rect codeLine="27" fill="#F1F1F1" height="194.6719" id="Chantier" rx="2.5" ry="2.5" style="stroke:#181818;stroke-width:0.5;" width="160" x="87" y="213"/><ellipse cx="131.75" cy="229" fill="#ADD1B2" rx="11" ry="11" style="stroke:#181818;stroke-width:1.0;"/><path d="M134.0938,224.6719 C133.1563,224.2344 132.5625,224.0938 131.6875,224.0938 C129.0625,224.0938 127.0625,226.1719 127.0625,228.8906 L127.0625,230.0156 C127.0625,232.5938 129.1719,234.4844 132.0625,234.4844 C133.2813,234.4844 134.4375,234.1875 135.1875,233.6406 C135.7656,233.2344 136.0938,232.7813 136.0938,232.3906 C136.0938,231.9375 135.7031,231.5469 135.2344,231.5469 C135.0156,231.5469 134.8125,231.625 134.625,231.8125 C134.1719,232.2969 134.1719,232.2969 133.9844,232.3906 C133.5625,232.6563 132.875,232.7813 132.1094,232.7813 C130.0625,232.7813 128.7656,231.6875 128.7656,229.9844 L128.7656,228.8906 C128.7656,227.1094 130.0156,225.7969 131.75,225.7969 C132.3281,225.7969 132.9375,225.9531 133.4063,226.2031 C133.8906,226.4844 134.0625,226.7031 134.1563,227.1094 C134.2188,227.5156 134.25,227.6406 134.3906,227.7656 C134.5313,227.9063 134.7656,228.0156 134.9844,228.0156 C135.25,228.0156 135.5156,227.875 135.6875,227.6563 C135.7969,227.5 135.8281,227.3125 135.8281,226.8906 L135.8281,225.4688 C135.8281,225.0313 135.8125,224.9063 135.7188,224.75 C135.5625,224.4844 135.2813,224.3438 134.9844,224.3438 C134.6875,224.3438 134.4844,224.4375 134.2656,224.75 L134.0938,224.6719 Z " fill="#000000"/><text fill="#000000" font-family="sans-serif" font-size="14" lengthAdjust="spacing" textLength="62" x="152.25" y="233.8467">Chantier</text><line style="stroke:#181818;stroke-width:0.5;" x1="88" x2="246" y1="245" y2="245"/><text fill="#000000" font-family="sans-serif" font-size="14" lengthAdjust="spacing" textLength="111" x="93" y="261.9951">String dateDeb</text><text fill="#000000" font-family="sans-serif" font-size="14" lengthAdjust="spacing" textLength="102" x="93" y="278.292">String dateFin</text><text fill="#000000" font-family="sans-serif" font-size="14" lengthAdjust="spacing" textLength="103" x="93" y="294.5889">String adresse</text><line style="stroke:#181818;stroke-width:0.5;" x1="88" x2="246" y1="301.8906" y2="301.8906"/><text fill="#000000" font-family="sans-serif" font-size="14" lengthAdjust="spacing" textLength="148" x="93" y="318.8857">String getDateDeb()</text><text fill="#000000" font-family="sans-serif" font-size="14" lengthAdjust="spacing" textLength="139" x="93" y="335.1826">String getDateFin()</text><text fill="#000000" font-family="sans-serif" font-size="14" lengthAdjust="spacing" textLength="140" x="93" y="351.4795">String getAdresse()</text><text fill="#000000" font-family="sans-serif" font-size="14" lengthAdjust="spacing" textLength="146" x="93" y="367.7764">String setDateDeb()</text><text fill="#000000" font-family="sans-serif" font-size="14" lengthAdjust="spacing" textLength="137" x="93" y="384.0732">String setDateFin()</text><text fill="#000000" font-family="sans-serif" font-size="14" lengthAdjust="spacing" textLength="138" x="93" y="400.3701">String setAdresse()</text></g><!--MD5=[04d440ec53fb2cc018de6d91273d6939]
class Affecter--><g id="elem_Affecter"><rect codeLine="40" fill="#F1F1F1" height="129.4844" id="Affecter" rx="2.5" ry="2.5" style="stroke:#181818;stroke-width:0.5;" width="130" x="165" y="468"/><ellipse cx="196.65" cy="484" fill="#ADD1B2" rx="11" ry="11" style="stroke:#181818;stroke-width:1.0;"/><path d="M198.9938,479.6719 C198.0563,479.2344 197.4625,479.0938 196.5875,479.0938 C193.9625,479.0938 191.9625,481.1719 191.9625,483.8906 L191.9625,485.0156 C191.9625,487.5938 194.0719,489.4844 196.9625,489.4844 C198.1813,489.4844 199.3375,489.1875 200.0875,488.6406 C200.6656,488.2344 200.9938,487.7813 200.9938,487.3906 C200.9938,486.9375 200.6031,486.5469 200.1344,486.5469 C199.9156,486.5469 199.7125,486.625 199.525,486.8125 C199.0719,487.2969 199.0719,487.2969 198.8844,487.3906 C198.4625,487.6563 197.775,487.7813 197.0094,487.7813 C194.9625,487.7813 193.6656,486.6875 193.6656,484.9844 L193.6656,483.8906 C193.6656,482.1094 194.9156,480.7969 196.65,480.7969 C197.2281,480.7969 197.8375,480.9531 198.3063,481.2031 C198.7906,481.4844 198.9625,481.7031 199.0563,482.1094 C199.1188,482.5156 199.15,482.6406 199.2906,482.7656 C199.4313,482.9063 199.6656,483.0156 199.8844,483.0156 C200.15,483.0156 200.4156,482.875 200.5875,482.6563 C200.6969,482.5 200.7281,482.3125 200.7281,481.8906 L200.7281,480.4688 C200.7281,480.0313 200.7125,479.9063 200.6188,479.75 C200.4625,479.4844 200.1813,479.3438 199.8844,479.3438 C199.5875,479.3438 199.3844,479.4375 199.1656,479.75 L198.9938,479.6719 Z " fill="#000000"/><text fill="#000000" font-family="sans-serif" font-size="14" lengthAdjust="spacing" textLength="61" x="214.35" y="488.8467">Affecter</text><line style="stroke:#181818;stroke-width:0.5;" x1="166" x2="294" y1="500" y2="500"/><text fill="#000000" font-family="sans-serif" font-size="14" lengthAdjust="spacing" textLength="114" x="171" y="516.9951">double nbHeure</text><text fill="#000000" font-family="sans-serif" font-size="14" lengthAdjust="spacing" textLength="91" x="171" y="533.292">String debut</text><text fill="#000000" font-family="sans-serif" font-size="14" lengthAdjust="spacing" textLength="67" x="171" y="549.5889">String fin</text><text fill="#000000" font-family="sans-serif" font-size="14" lengthAdjust="spacing" textLength="84" x="171" y="565.8857">double paie</text><line style="stroke:#181818;stroke-width:0.5;" x1="166" x2="294" y1="573.1875" y2="573.1875"/><text fill="#000000" font-family="sans-serif" font-size="14" lengthAdjust="spacing" textLength="118" x="171" y="590.1826">double getPaie()</text></g><ellipse cx="128" cy="532.5" fill="#000000" rx="2" ry="2" style="stroke:none;stroke-width:1.0;"/><!--MD5=[8f1e67f110add7575e59c6740599d7d4]
link Entreprise to Employe--><g id="link_Entreprise_Employe"><path codeLine="1" d="M79.9042,153.09 C75.3954,172.394 71.2755,193.358 69,213 C50.7479,370.552 63.4715,556.909 73.0626,656.923 " fill="none" id="Entreprise-Employe" style="stroke:#181818;stroke-width:1.0;"/><text fill="#000000" font-family="sans-serif" font-size="13" lengthAdjust="spacing" textLength="23" x="48.0581" y="645.6985">0..*</text></g><!--MD5=[c2de7d0ee42670d9ff0a26fc84907427]
link Entreprise to Chantier--><g id="link_Entreprise_Chantier"><path codeLine="2" d="M121.199,153.299 C126.72,172.127 132.758,192.72 138.586,212.595 " fill="none" id="Entreprise-Chantier" style="stroke:#181818;stroke-width:1.0;"/><text fill="#000000" font-family="sans-serif" font-size="13" lengthAdjust="spacing" textLength="23" x="112.6548" y="201.9381">0..*</text></g><!--MD5=[787d578c29e5d24e7e2e691e725442b1]
link Chantier to apoint434896--><g id="link_Chantier_apoint434896"><path d="M149.837,408.315 C140.191,462.728 129.772,521.506 128.202,530.358 " fill="none" id="Chantier-apoint434896" style="stroke:#181818;stroke-width:1.0;"/></g><!--MD5=[5066bc7826df1fa67bf2f80f1eb86df9]
link apoint434896 to Employe--><g id="link_apoint434896_Employe"><path d="M127.7,534.748 C125.425,544.212 110.65,605.667 98.3196,656.958 " fill="none" id="apoint434896-Employe" style="stroke:#181818;stroke-width:1.0;"/></g><!--MD5=[72c53a3f05d91625512ffbfb113947fd]
link apoint434896 to Affecter--><g id="link_apoint434896_Affecter"><path d="M130.391,532.5 C141.804,532.5 153.218,532.5 164.631,532.5 " fill="none" id="apoint434896-Affecter" style="stroke:#181818;stroke-width:1.0;stroke-dasharray:7.0,7.0;"/></g><!--MD5=[18b7583a80eb6f59f1a509202e7aeb2a]
@startuml
Entreprise - - "0..*" Employe
Entreprise - - "0..*" Chantier
(Chantier,Employe) .. Affecter


class Entreprise {
    String nom
    String adresse

    String getNom()
    String getAdresse()
    String setNom()
    String setAdresse()

}

class Employe {
    double salaireHor
    String coord

    double getSalaire()
    String getCoord()
    double setSalaire()
    String setCoord()
}

class Chantier {
    String dateDeb
    String dateFin
    String adresse

    String getDateDeb()
    String getDateFin()
    String getAdresse()
    String setDateDeb()
    String setDateFin()
    String setAdresse()
}

class Affecter {
    double nbHeure
    String debut
    String fin
    double paie

    double getPaie()
    

}
@enduml

PlantUML version 1.2022.3beta2(Unknown compile time)
(GPL source distribution)
Java Runtime: Java(TM) SE Runtime Environment
JVM: Java HotSpot(TM) 64-Bit Server VM
Default Encoding: UTF-8
Language: en
Country: US
--></g></svg>