<?xml version="1.0" encoding="UTF-8" standalone="no"?><svg xmlns="http://www.w3.org/2000/svg" xmlns:xlink="http://www.w3.org/1999/xlink" contentStyleType="text/css" height="505px" preserveAspectRatio="none" style="width:959px;height:505px;background:#FFFFFF;" version="1.1" viewBox="0 0 959 505" width="959px" zoomAndPan="magnify"><defs/><g><g id="elem_g1"><ellipse cx="666.4744" cy="157.8949" fill="#F1F1F1" rx="87.4744" ry="19.8949" style="stroke:#181818;stroke-width:0.5;"/><text fill="#000000" font-family="sans-serif" font-size="14" lengthAdjust="spacing" textLength="136" x="598.4744" y="160.7416">Gérer les chantiers</text></g><g id="elem_g2"><ellipse cx="505.712" cy="274.9424" fill="#F1F1F1" rx="82.712" ry="18.9424" style="stroke:#181818;stroke-width:0.5;"/><text fill="#000000" font-family="sans-serif" font-size="14" lengthAdjust="spacing" textLength="125" x="442.5208" y="278.0215">Gérer les artisans</text></g><g id="elem_g3"><ellipse cx="335.3093" cy="157.7619" fill="#F1F1F1" rx="96.8093" ry="21.7619" style="stroke:#181818;stroke-width:0.5;"/><text fill="#000000" font-family="sans-serif" font-size="14" lengthAdjust="spacing" textLength="157" x="256.8093" y="160.6085">Gérer les affectations</text></g><g id="elem_o1"><ellipse cx="871.288" cy="157.8576" fill="#F1F1F1" rx="82.288" ry="18.8576" style="stroke:#181818;stroke-width:0.5;"/><text fill="#000000" font-family="sans-serif" font-size="14" lengthAdjust="spacing" textLength="124" x="808.4505" y="160.9838">Obtenir les dates</text></g><g id="elem_o2"><ellipse cx="788.3658" cy="274.7732" fill="#F1F1F1" rx="81.8658" ry="18.7732" style="stroke:#181818;stroke-width:0.5;"/><text fill="#000000" font-family="sans-serif" font-size="14" lengthAdjust="spacing" textLength="123" x="725.8805" y="277.9463">Obtenir l'adresse</text></g><g id="elem_o3"><ellipse cx="438.3658" cy="372.7732" fill="#F1F1F1" rx="81.8658" ry="18.7732" style="stroke:#181818;stroke-width:0.5;"/><text fill="#000000" font-family="sans-serif" font-size="14" lengthAdjust="spacing" textLength="123" x="375.8805" y="375.9463">Obtenir le salaire</text></g><g id="elem_o4"><ellipse cx="505.4086" cy="475.5817" fill="#F1F1F1" rx="105.9086" ry="23.5817" style="stroke:#181818;stroke-width:0.5;"/><text fill="#000000" font-family="sans-serif" font-size="14" lengthAdjust="spacing" textLength="177" x="416.9086" y="478.4284">Obtenir les coordonnées</text></g><g id="elem_o5"><ellipse cx="104.6147" cy="158.1229" fill="#F1F1F1" rx="98.6147" ry="22.1229" style="stroke:#181818;stroke-width:0.5;"/><text fill="#000000" font-family="sans-serif" font-size="14" lengthAdjust="spacing" textLength="161" x="24.1147" y="160.9696">Obtenir le nb d'heures</text></g><g id="elem_o6"><ellipse cx="205.4455" cy="275.1891" fill="#F1F1F1" rx="81.4455" ry="18.6891" style="stroke:#181818;stroke-width:0.5;"/><text fill="#000000" font-family="sans-serif" font-size="14" lengthAdjust="spacing" textLength="122" x="143.3109" y="278.409">Dates de mission</text></g><g id="elem_c"><ellipse cx="505.6502" cy="32.93" fill="#F1F1F1" rx="122.6502" ry="26.93" style="stroke:#181818;stroke-width:0.5;"/><text fill="#000000" font-family="sans-serif" font-size="14" lengthAdjust="spacing" textLength="213" x="399.1502" y="35.7767">Calculer salaire selon chantier</text></g><!--MD5=[4206b647878100e6066f92523e03a5d6]
entity Entreprise--><g id="elem_Entreprise"><ellipse cx="505.5" cy="128.5" fill="#F1F1F1" rx="8" ry="8" style="stroke:#181818;stroke-width:0.5;"/><path d="M505.5,136.5 L505.5,163.5 M492.5,144.5 L518.5,144.5 M505.5,163.5 L492.5,178.5 M505.5,163.5 L518.5,178.5 " fill="none" style="stroke:#181818;stroke-width:0.5;"/><text fill="#000000" font-family="sans-serif" font-size="14" lengthAdjust="spacing" textLength="76" x="467.5" y="192.9951">Entreprise</text></g><!--MD5=[03840ed4db198a91b9c954020fbd1c2a]
link Entreprise to g1--><g id="link_Entreprise_g1"><path d="M543.549,158 C553.501,158 563.453,158 573.405,158 " fill="none" id="Entreprise-to-g1" style="stroke:#181818;stroke-width:1.0;"/><polygon fill="#181818" points="578.609,158,569.609,154,573.609,158,569.609,162,578.609,158" style="stroke:#181818;stroke-width:1.0;"/></g><!--MD5=[49381f4e0f953af25bac8ffff3e5afca]
link Entreprise to g2--><g id="link_Entreprise_g2"><path d="M505.5,196.02 C505.5,213.953 505.5,234.944 505.5,250.627 " fill="none" id="Entreprise-to-g2" style="stroke:#181818;stroke-width:1.0;"/><polygon fill="#181818" points="505.5,255.73,509.5,246.73,505.5,250.73,501.5,246.73,505.5,255.73" style="stroke:#181818;stroke-width:1.0;"/></g><!--MD5=[c65c6704a0911e2478f60e102abf51f3]
reverse link g3 to Entreprise--><g id="link_g3_Entreprise"><path d="M437.929,158 C447.765,158 457.602,158 467.438,158 " fill="none" id="g3-backto-Entreprise" style="stroke:#181818;stroke-width:1.0;"/><polygon fill="#181818" points="432.785,158,441.785,162,437.785,158,441.785,154,432.785,158" style="stroke:#181818;stroke-width:1.0;"/></g><!--MD5=[48396b6abaa2dfcd37c64567ed8c7455]
reverse link c to Entreprise--><g id="link_c_Entreprise"><path d="M505.5,65.107 C505.5,81.721 505.5,102.29 505.5,119.752 " fill="none" id="c-backto-Entreprise" style="stroke:#181818;stroke-width:1.0;"/><polygon fill="#181818" points="505.5,60.085,501.5,69.085,505.5,65.085,509.5,69.085,505.5,60.085" style="stroke:#181818;stroke-width:1.0;"/></g><!--MD5=[effa5eacd4d204301b0389a2d3b9c034]
link g1 to o1--><g id="link_g1_o1"><path d="M754.186,158 C763.941,158 773.697,158 783.453,158 " fill="none" id="g1-to-o1" style="stroke:#181818;stroke-width:1.0;"/><polygon fill="#181818" points="788.555,158,779.555,154,783.555,158,779.555,162,788.555,158" style="stroke:#181818;stroke-width:1.0;"/></g><!--MD5=[ec11f5cb947a613a6290f150ebb74a65]
link g1 to o2--><g id="link_g1_o2"><path d="M686.373,177.733 C708.202,198.309 743.183,231.283 766.003,252.794 " fill="none" id="g1-to-o2" style="stroke:#181818;stroke-width:1.0;"/><polygon fill="#181818" points="769.837,256.408,766.0319,247.3239,766.1987,252.9783,760.5443,253.1451,769.837,256.408" style="stroke:#181818;stroke-width:1.0;"/></g><!--MD5=[44b4bc9fcc18533232bc301199d8a096]
link g2 to o3--><g id="link_g2_o3"><path d="M492.898,294.057 C481.855,309.879 465.768,332.929 453.952,349.86 " fill="none" id="g2-to-o3" style="stroke:#181818;stroke-width:1.0;"/><polygon fill="#181818" points="451.046,354.024,459.4769,348.9329,453.9076,349.9238,452.9167,344.3544,451.046,354.024" style="stroke:#181818;stroke-width:1.0;"/></g><!--MD5=[4f723d296e58c01612030c7822e6579c]
link g2 to o4--><g id="link_g2_o4"><path d="M515.231,293.965 C522.997,309.382 533.253,332.459 537.5,354 C543.898,386.452 531.256,423.0975 520.024,447.367 " fill="none" id="g2-to-o4" style="stroke:#181818;stroke-width:1.0;"/><polygon fill="#181818" points="517.803,452.051,525.2733,445.6327,519.9452,447.5332,518.0447,442.2051,517.803,452.051" style="stroke:#181818;stroke-width:1.0;"/></g><!--MD5=[71c1b16525e0c4b250dfd6237c35a1a8]
reverse link o5 to g3--><g id="link_o5_g3"><path d="M208.519,158 C218.486,158 228.453,158 238.421,158 " fill="none" id="o5-backto-g3" style="stroke:#181818;stroke-width:1.0;"/><polygon fill="#181818" points="203.307,158,212.307,162,208.307,158,212.307,154,203.307,158" style="stroke:#181818;stroke-width:1.0;"/></g><!--MD5=[f92cce2b4d66110bc8d2ceacc7971073]
link g3 to o6--><g id="link_g3_o6"><path d="M312.259,179.56 C288.647,200.446 252.288,232.611 228.694,253.482 " fill="none" id="g3-to-o6" style="stroke:#181818;stroke-width:1.0;"/><polygon fill="#181818" points="224.732,256.987,234.1236,254.0207,228.4773,253.6745,228.8236,248.0283,224.732,256.987" style="stroke:#181818;stroke-width:1.0;"/></g><!--MD5=[20a318d823c62e0883af14d5e9b73270]
link g1 to g2--><!--MD5=[9e5c669479f3c1c7f0de4a21ce4cf69e]
link g2 to g3--><!--MD5=[9ad6417c8edb5c87f8a26fa2c4cf4771]
link o1 to o2--><!--MD5=[ca23d40ed75ad3e9ec0e9aac8c9c3c81]
link o3 to o4--><!--MD5=[24a285f0e3367c65721210c27218cfc5]
link o6 to o5--><!--MD5=[66947737d37407613601c035d3f44e19]
@startuml
usecase g1 as "Gérer les chantiers"
usecase g2 as "Gérer les artisans"
usecase g3 as "Gérer les affectations"
usecase o1 as "Obtenir les dates"
usecase o2 as "Obtenir l'adresse"
usecase o3 as "Obtenir le salaire"
usecase o4 as "Obtenir les coordonnées"
usecase o5 as "Obtenir le nb d'heures"
usecase o6 as "Dates de mission"
usecase c as "Calculer salaire selon chantier"



actor Entreprise 


Entreprise -right-> g1
Entreprise -down-> g2
Entreprise -left-> g3
Entreprise -up-> c

g1 -right-> o1
g1 -right-> o2
g2 -down-> o3
g2 -down-> o4
g3 -left-> o5
g3 -down-> o6


g1 -[hidden]-> g2
g2 -[hidden]-> g3
o1 -[hidden]-> o2
o3 -[hidden]-> o4
o6 -[hidden]-> o5
@enduml

PlantUML version 1.2022.3beta2(Unknown compile time)
(GPL source distribution)
Java Runtime: Java(TM) SE Runtime Environment
JVM: Java HotSpot(TM) 64-Bit Server VM
Default Encoding: UTF-8
Language: en
Country: US
--></g></svg>